Coordinates
nRows=282
nColumns=2
inDegrees=yes
endheader
time	ankle_angle_r	
4.09147	  9.612972	
4.12474	  9.668972	
4.158	  9.691534	
4.19126	  9.680736	
4.22453	  9.658288	
4.25779	  9.644562	
4.29106	  9.644636	
4.32432	  9.644835	
4.35758	  9.635755	
4.39085	  9.627101	
4.42411	  9.625455	
4.45738	  9.624551	
4.49064	  9.620549	
4.5239	  9.615026	
4.55717	  9.614015	
4.59043	  9.624387	
4.6237	  9.640818	
4.65696	  9.651759	
4.69022	  9.652907	
4.72349	  9.646873	
4.75675	  9.643835	
4.79002	  9.652365	
4.82328	  9.666760	
4.85654	  9.677781	
4.88981	  9.681438	
4.92307	  9.676746	
4.95634	  9.671349	
4.9896	  9.675281	
5.02286	  9.689364	
5.05613	  9.711996	
5.08939	  9.737734	
5.12266	  9.754428	
5.15592	  9.762118	
5.18918	  9.769176	
5.22245	  9.771781	
5.25571	  9.767042	
5.28898	  9.760304	
5.32224	  9.751665	
5.3555	  9.745152	
5.38877	  9.750170	
5.42203	  9.759984	
5.4553	  9.759757	
5.48856	  9.750186	
5.52182	  9.742726	
5.55509	  9.744383	
5.58835	  9.750306	
5.62162	  9.749598	
5.65488	  9.742866	
5.68814	  9.738290	
5.72141	  9.732965	
5.75467	  9.717963	
5.78794	  9.692478	
5.8212	  9.665579	
5.85446	  9.647008	
5.88773	  9.635127	
5.92099	  9.625046	
5.95426	  9.619344	
5.98752	  9.616191	
6.02078	  9.609258	
6.05405	  9.599348	
6.08731	  9.589588	
6.12058	  9.582002	
6.15384	  9.577770	
6.1871	  9.574694	
6.22037	  9.575722	
6.25363	  9.586938	
6.2869	  9.600366	
6.32016	  9.605296	
6.35342	  9.605883	
6.38669	  9.608409	
6.41995	  9.616845	
6.45322	  9.634786	
6.48648	  9.653658	
6.51974	  9.664439	
6.55301	  9.671304	
6.58627	  9.674084	
6.61954	  9.671154	
6.6528	  9.674593	
6.68606	  9.689949	
6.71933	  9.706301	
6.75259	  9.712470	
6.78586	  9.701158	
6.81912	  9.677125	
6.85238	  9.660798	
6.88565	  9.661554	
6.91891	  9.668878	
6.95218	  9.674823	
6.98544	  9.679331	
7.0187	  9.685342	
7.05197	  9.698391	
7.08523	  9.715605	
7.1185	  9.726969	
7.15176	  9.730883	
7.18502	  9.734048	
7.21829	  9.742892	
7.25155	  9.754893	
7.28482	  9.758650	
7.31808	  9.749745	
7.35134	  9.734369	
7.38461	  9.721830	
7.41787	  9.724927	
7.45114	  9.746882	
7.4844	  9.770758	
7.51766	  9.783655	
7.55093	  9.788501	
7.58419	  9.785654	
7.61746	  9.774017	
7.65072	  9.759521	
7.68398	  9.749166	
7.71725	  9.751827	
7.75051	  9.769410	
7.78378	  9.786498	
7.81704	  9.791167	
7.8503	  9.784653	
7.88357	  9.769841	
7.91683	  9.756326	
7.9501	  9.753548	
7.98336	  9.754349	
8.01662	  9.751246	
8.04989	  9.747237	
8.08315	  9.743115	
8.11642	  9.741715	
8.14968	  9.749195	
8.18294	  9.760138	
8.21621	  9.763654	
8.24947	  9.757468	
8.28274	  9.747171	
8.316	  9.740958	
8.34926	  9.739716	
8.38253	  9.737096	
8.41579	  9.731160	
8.44906	  9.720969	
8.48232	  9.706146	
8.51558	  9.695858	
8.54885	  9.696207	
8.58211	  9.697392	
8.61538	  9.684045	
8.64864	  9.650208	
8.6819	  9.610196	
8.71517	  9.587878	
8.74843	  9.586830	
8.7817	  9.591143	
8.81496	  9.590509	
8.84822	  9.583088	
8.88149	  9.571896	
8.91475	  9.565106	
8.94802	  9.563005	
8.98128	  9.559473	
9.01454	  9.557867	
9.04781	  9.563311	
9.08107	  9.573534	
9.11434	  9.585710	
9.1476	  9.594567	
9.18086	  9.595436	
9.21413	  9.595179	
9.24739	  9.599199	
9.28066	  9.601432	
9.31392	  9.599546	
9.34718	  9.596287	
9.38045	  9.592674	
9.41371	  9.593917	
9.44698	  9.606460	
9.48024	  9.632355	
9.5135	  9.667395	
9.54677	  9.696616	
9.58003	  9.709708	
9.6133	  9.715923	
9.64656	  9.726401	
9.67982	  9.739896	
9.71309	  9.751420	
9.74635	  9.762107	
9.77962	  9.778180	
9.81288	  9.798026	
9.84614	  9.810657	
9.87941	  9.813948	
9.91267	  9.814435	
9.94594	  9.812247	
9.9792	  9.806322	
10.0125	  9.797238	
10.0457	  9.780965	
10.079	  9.760526	
10.1123	  9.745196	
10.1455	  9.733063	
10.1788	  9.720299	
10.212	  9.711432	
10.2453	  9.707149	
10.2786	  9.704205	
10.3118	  9.701817	
10.3451	  9.696323	
10.3784	  9.686403	
10.4116	  9.676826	
10.4449	  9.666089	
10.4782	  9.652266	
10.5114	  9.642566	
10.5447	  9.640697	
10.578	  9.644157	
10.6112	  9.649228	
10.6445	  9.649939	
10.6777	  9.646938	
10.711	  9.647360	
10.7443	  9.650190	
10.7775	  9.647923	
10.8108	  9.637195	
10.8441	  9.620527	
10.8773	  9.603160	
10.9106	  9.589589	
10.9439	  9.587923	
10.9771	  9.606797	
11.0104	  9.637398	
11.0436	  9.660833	
11.0769	  9.672269	
11.1102	  9.677817	
11.1434	  9.683554	
11.1767	  9.690941	
11.21	  9.691050	
11.2432	  9.679727	
11.2765	  9.669893	
11.3098	  9.670335	
11.343	  9.677625	
11.3763	  9.687309	
11.4096	  9.693440	
11.4428	  9.697672	
11.4761	  9.711862	
11.5093	  9.732662	
11.5426	  9.744374	
11.5759	  9.745540	
11.6091	  9.738988	
11.6424	  9.721612	
11.6757	  9.700380	
11.7089	  9.685580	
11.7422	  9.679932	
11.7755	  9.687890	
11.8087	  9.704328	
11.842	  9.710485	
11.8752	  9.703875	
11.9085	  9.699576	
11.9418	  9.705858	
11.975	  9.721393	
12.0083	  9.738475	
12.0416	  9.745687	
12.0748	  9.738701	
12.1081	  9.727455	
12.1414	  9.728699	
12.1746	  9.744654	
12.2079	  9.759238	
12.2412	  9.762028	
12.2744	  9.757677	
12.3077	  9.756205	
12.3409	  9.765837	
12.3742	  9.781151	
12.4075	  9.785736	
12.4407	  9.778967	
12.474	  9.773746	
12.5073	  9.769545	
12.5405	  9.761180	
12.5738	  9.757312	
12.6071	  9.765537	
12.6403	  9.778767	
12.6736	  9.784527	
12.7068	  9.779702	
12.7401	  9.776024	
12.7734	  9.781621	
12.8066	  9.785142	
12.8399	  9.777240	
12.8732	  9.764629	
12.9064	  9.752938	
12.9397	  9.744079	
12.973	  9.741209	
13.0062	  9.742075	
13.0395	  9.740827	
13.0728	  9.729788	
13.106	  9.703016	
13.1393	  9.669561	
13.1725	  9.644815	
13.2058	  9.632212	
13.2391	  9.626506	
13.2723	  9.619825	
13.3056	  9.607941	
13.3389	  9.596711	
13.3721	  9.591994	
13.4054	  9.593094	
13.4387	  9.597815	
